<svg xmlns="http://www.w3.org/2000/svg" xmlns:xlink="http://www.w3.org/1999/xlink" width="500" zoomAndPan="magnify" viewBox="0 0 375 225" height="300" preserveAspectRatio="xMidYMid meet" version="1.2"><defs/><g id="b359d97d47"><g style="fill:#000000;fill-opacity:1;"><g transform="translate(64.159473, 141.534645)"><path style="stroke:none" d="M 40.875 -81.296875 L 88.390625 -81.296875 L 88.390625 0 L 39.484375 0 L 39.484375 -6.046875 L 34.5 0 L 2.203125 0 L 2.203125 -33.5625 Z M 4.40625 -32.75 L 4.40625 -2.203125 L 33.453125 -2.203125 L 46.34375 -17.890625 L 47.15625 -17.1875 L 41.6875 -9.171875 L 41.6875 -2.203125 L 86.171875 -2.203125 C 86.171875 -8.710938 86.171875 -14.519531 86.171875 -19.625 C 86.171875 -24.738281 86.171875 -29.519531 86.171875 -33.96875 C 86.171875 -38.425781 86.171875 -42.878906 86.171875 -47.328125 C 86.171875 -51.773438 86.171875 -56.554688 86.171875 -61.671875 C 86.171875 -66.785156 86.171875 -72.59375 86.171875 -79.09375 L 42.046875 -79.09375 Z M 47.15625 -48.078125 L 49.359375 -48.078125 L 49.359375 -36 L 47.15625 -36 Z M 47.15625 -48.078125 "/></g></g><g style="fill:#000000;fill-opacity:1;"><g transform="translate(148.127826, 141.534645)"><path style="stroke:none" d="M 49.015625 0 L 2.203125 0 L 2.203125 -81.296875 L 50.515625 -81.296875 L 50.515625 -75.140625 L 55.75 -81.296875 L 87.921875 -81.296875 L 87.921875 -47.625 Z M 85.71875 -48.4375 L 85.71875 -79.09375 L 56.796875 -79.09375 L 41.8125 -61.328125 L 41 -62.140625 L 48.3125 -72.46875 L 48.3125 -79.09375 L 4.40625 -79.09375 C 4.40625 -72.59375 4.40625 -66.785156 4.40625 -61.671875 C 4.40625 -56.554688 4.40625 -51.773438 4.40625 -47.328125 C 4.40625 -42.878906 4.40625 -38.445312 4.40625 -34.03125 C 4.40625 -29.613281 4.40625 -24.847656 4.40625 -19.734375 C 4.40625 -14.628906 4.40625 -8.785156 4.40625 -2.203125 L 47.96875 -2.203125 Z M 85.71875 -48.4375 "/></g></g><g style="fill:#000000;fill-opacity:1;"><g transform="translate(231.631602, 141.534645)"><path style="stroke:none" d="M 2.203125 0 L 2.203125 -81.296875 L 83.625 -81.296875 L 83.625 -18.578125 L 65.859375 -18.578125 L 65.859375 0 Z M 63.640625 -2.203125 L 63.640625 -18.578125 L 53.421875 -19.859375 L 53.421875 -20.796875 L 81.421875 -20.796875 L 81.421875 -79.09375 L 4.40625 -79.09375 L 4.40625 -2.203125 Z M 44.25 -52.375 L 45.875 -52.375 L 45.875 -40.53125 L 44.25 -40.53125 Z M 44.25 -52.375 "/></g></g></g></svg>